<?xml version="1.0" encoding="iso-8859-1"?>
<!-- Generator: Adobe Illustrator 19.0.0, SVG Export Plug-In . SVG Version: 6.00 Build 0)  -->
<svg version="1.1" id="Layer_1" xmlns="http://www.w3.org/2000/svg" xmlns:xlink="http://www.w3.org/1999/xlink" x="0px" y="0px"
	 viewBox="0 0 512 512" style="enable-background:new 0 0 512 512;" xml:space="preserve">
<polyline style="fill:#4288BC;" points="324.625,65.628 442.244,65.628 442.244,502.915 69.98,502.915 69.98,65.628 187.587,65.628 
	"/>
<polyline style="fill:#E6E6E6;" points="324.625,99.518 408.355,99.518 408.355,469.026 103.869,469.026 103.869,99.518 
	187.587,99.518 "/>
<path style="fill:#EAB96C;" d="M324.628,47.746v67.779H187.591V47.746h28.625c0-22.028,17.86-39.888,39.888-39.888
	c5.976,0,11.647,1.31,16.741,3.671c13.669,6.326,23.146,20.164,23.146,36.217H324.628z"/>
<path style="fill:#FCCC8B;" d="M324.628,47.746v67.779h-83.041l31.257-103.996c13.669,6.326,23.147,20.164,23.147,36.217
	C295.992,47.746,324.628,47.746,324.628,47.746z"/>
<polygon style="fill:#EAB96C;" points="256.112,339.453 273.871,368.881 307.346,376.677 284.847,402.66 287.777,436.905 
	256.112,423.536 224.448,436.905 227.378,402.66 204.879,376.677 238.354,368.881 "/>
<path d="M442.132,57.768H332.987v-9.411c0-4.679-3.792-8.472-8.472-8.472h-20.905C299.59,17.247,279.768,0,255.994,0
	s-43.597,17.247-47.615,39.886h-20.905c-4.679,0-8.472,3.793-8.472,8.472v9.411H69.868c-4.679,0-8.472,3.793-8.472,8.472v360.076
	c0,4.679,3.793,8.472,8.472,8.472c4.679,0,8.472-3.793,8.472-8.472V74.713h100.661v41.42c0,4.679,3.793,8.472,8.472,8.472h137.041
	c4.68,0,8.472-3.793,8.472-8.472v-7.53h66.784v41.515c0,4.679,3.792,8.472,8.472,8.472s8.472-3.793,8.472-8.472V100.13
	c0-4.679-3.792-8.472-8.472-8.472h-75.256V74.713H433.66v420.342H78.34v-43.322c0-4.679-3.793-8.472-8.472-8.472
	c-4.679,0-8.472,3.793-8.472,8.472v51.794c0,4.679,3.793,8.472,8.472,8.472h372.265c4.68,0,8.472-3.793,8.472-8.472V66.24
	C450.605,61.561,446.811,57.768,442.132,57.768z M195.947,107.66V56.83h20.163c4.679,0,8.472-3.793,8.472-8.472
	c0-17.321,14.092-31.413,31.413-31.413s31.412,14.092,31.412,31.413c0,4.679,3.792,8.472,8.472,8.472h20.163v50.831H195.947V107.66z
	"/>
<path d="M163.372,91.657h-59.615c-4.679,0-8.472,3.793-8.472,8.472v369.508c0,4.679,3.793,8.472,8.472,8.472h304.486
	c4.68,0,8.472-3.793,8.472-8.472V176.099c0-4.679-3.792-8.472-8.472-8.472s-8.472,3.793-8.472,8.472v285.067H112.23V108.602h51.143
	c4.679,0,8.472-3.793,8.472-8.472C171.844,95.451,168.051,91.657,163.372,91.657z"/>
<path d="M329.722,192.38c4.68,0,8.472-3.793,8.472-8.472c0-4.679-3.792-8.472-8.472-8.472H182.276c-4.679,0-8.472,3.793-8.472,8.472
	c0,4.679,3.793,8.472,8.472,8.472H329.722z"/>
<circle cx="255.99" cy="48.358" r="8.472"/>
<path d="M361.451,295.738c0-4.679-3.792-8.472-8.472-8.472H159.02c-4.679,0-8.472,3.793-8.472,8.472
	c0,4.679,3.793,8.472,8.472,8.472h193.958C357.658,304.21,361.451,300.417,361.451,295.738z"/>
<path d="M134.516,239.823c0,4.679,3.793,8.472,8.472,8.472h226.02c4.68,0,8.472-3.793,8.472-8.472s-3.792-8.472-8.472-8.472h-226.02
	C138.31,231.351,134.516,235.144,134.516,239.823z"/>
<path d="M315.292,374.671c-0.917-2.823-3.245-4.96-6.136-5.634l-29.991-6.985l-15.911-26.365c-1.533-2.542-4.285-4.095-7.253-4.095
	c-2.968,0-5.719,1.553-7.253,4.095l-15.91,26.365l-29.991,6.985c-2.891,0.673-5.219,2.811-6.136,5.634
	c-0.917,2.823-0.29,5.92,1.653,8.165l20.159,23.279l-2.625,30.682c-0.253,2.957,1.06,5.831,3.461,7.577
	c2.4,1.743,5.539,2.105,8.276,0.95l28.369-11.978l28.369,11.978c1.06,0.447,2.18,0.668,3.294,0.668c1.762,0,3.51-0.549,4.981-1.618
	c2.402-1.745,3.714-4.619,3.461-7.577l-2.625-30.682l20.159-23.279C315.582,380.591,316.209,377.494,315.292,374.671z
	 M278.33,397.727c-1.497,1.729-2.232,3.99-2.037,6.268l1.733,20.258l-18.731-7.908c-1.054-0.445-2.175-0.668-3.295-0.668
	c-1.121,0-2.242,0.223-3.295,0.668l-18.731,7.908l1.733-20.258c0.195-2.279-0.54-4.539-2.037-6.268l-13.31-15.37l19.802-4.611
	c2.228-0.519,4.15-1.916,5.332-3.875l10.505-17.408l10.506,17.408c1.182,1.958,3.104,3.355,5.332,3.875l19.802,4.611L278.33,397.727
	z"/>
<g>
</g>
<g>
</g>
<g>
</g>
<g>
</g>
<g>
</g>
<g>
</g>
<g>
</g>
<g>
</g>
<g>
</g>
<g>
</g>
<g>
</g>
<g>
</g>
<g>
</g>
<g>
</g>
<g>
</g>
</svg>
